<svg width="16" height="16" viewBox="0 0 16 16" fill="none" xmlns="http://www.w3.org/2000/svg">
<path d="M7.99935 10.3832C7.91046 10.3832 7.82713 10.3694 7.74935 10.3418C7.67157 10.3143 7.59935 10.267 7.53268 10.1998L5.13268 7.79984C4.99935 7.66651 4.93535 7.51095 4.94068 7.33317C4.94602 7.15539 5.01002 6.99984 5.13268 6.86651C5.26602 6.73317 5.42446 6.66384 5.60802 6.65851C5.79157 6.65317 5.94979 6.71695 6.08268 6.84984L7.33268 8.09984V3.33317C7.33268 3.14428 7.39668 2.98606 7.52468 2.85851C7.65268 2.73095 7.8109 2.66695 7.99935 2.66651C8.18779 2.66606 8.34624 2.73006 8.47468 2.85851C8.60313 2.98695 8.6669 3.14517 8.66602 3.33317V8.09984L9.91602 6.84984C10.0493 6.71651 10.2078 6.65251 10.3913 6.65784C10.5749 6.66317 10.7331 6.73273 10.866 6.86651C10.9882 6.99984 11.0522 7.15539 11.058 7.33317C11.0638 7.51095 10.9998 7.66651 10.866 7.79984L8.46602 10.1998C8.39935 10.2665 8.32713 10.3138 8.24935 10.3418C8.17157 10.3698 8.08824 10.3836 7.99935 10.3832ZM3.99935 13.3332C3.63268 13.3332 3.3189 13.2027 3.05802 12.9418C2.79713 12.681 2.66646 12.367 2.66602 11.9998V10.6665C2.66602 10.4776 2.73002 10.3194 2.85802 10.1918C2.98602 10.0643 3.14424 10.0003 3.33268 9.99984C3.52113 9.99939 3.67957 10.0634 3.80802 10.1918C3.93646 10.3203 4.00024 10.4785 3.99935 10.6665V11.9998H11.9993V10.6665C11.9993 10.4776 12.0633 10.3194 12.1913 10.1918C12.3193 10.0643 12.4776 10.0003 12.666 9.99984C12.8545 9.99939 13.0129 10.0634 13.1413 10.1918C13.2698 10.3203 13.3336 10.4785 13.3327 10.6665V11.9998C13.3327 12.3665 13.2022 12.6805 12.9413 12.9418C12.6805 13.2032 12.3665 13.3336 11.9993 13.3332H3.99935Z" fill="#615C58"/>
</svg>
