<svg width="16" height="16" viewBox="0 0 16 16" fill="none" xmlns="http://www.w3.org/2000/svg">
<path d="M8.0013 10.3832C7.91241 10.3832 7.82908 10.3694 7.7513 10.3418C7.67352 10.3143 7.6013 10.267 7.53464 10.1998L5.13464 7.79984C5.0013 7.66651 4.9373 7.51095 4.94264 7.33317C4.94797 7.15539 5.01197 6.99984 5.13464 6.86651C5.26797 6.73317 5.42641 6.66384 5.60997 6.65851C5.79352 6.65317 5.95175 6.71695 6.08464 6.84984L7.33464 8.09984V3.33317C7.33464 3.14428 7.39864 2.98606 7.52664 2.85851C7.65464 2.73095 7.81286 2.66695 8.0013 2.66651C8.18975 2.66606 8.34819 2.73006 8.47664 2.85851C8.60508 2.98695 8.66886 3.14517 8.66797 3.33317V8.09984L9.91797 6.84984C10.0513 6.71651 10.2097 6.65251 10.3933 6.65784C10.5769 6.66317 10.7351 6.73273 10.868 6.86651C10.9902 6.99984 11.0542 7.15539 11.06 7.33317C11.0657 7.51095 11.0017 7.66651 10.868 7.79984L8.46797 10.1998C8.4013 10.2665 8.32908 10.3138 8.2513 10.3418C8.17352 10.3698 8.09019 10.3836 8.0013 10.3832ZM4.0013 13.3332C3.63464 13.3332 3.32086 13.2027 3.05997 12.9418C2.79908 12.681 2.66841 12.367 2.66797 11.9998V10.6665C2.66797 10.4776 2.73197 10.3194 2.85997 10.1918C2.98797 10.0643 3.14619 10.0003 3.33464 9.99984C3.52308 9.99939 3.68152 10.0634 3.80997 10.1918C3.93841 10.3203 4.00219 10.4785 4.0013 10.6665V11.9998H12.0013V10.6665C12.0013 10.4776 12.0653 10.3194 12.1933 10.1918C12.3213 10.0643 12.4795 10.0003 12.668 9.99984C12.8564 9.99939 13.0149 10.0634 13.1433 10.1918C13.2717 10.3203 13.3355 10.4785 13.3346 10.6665V11.9998C13.3346 12.3665 13.2042 12.6805 12.9433 12.9418C12.6824 13.2032 12.3684 13.3336 12.0013 13.3332H4.0013Z" fill="#F5F5F5"/>
</svg>
