<svg width="13" height="10" viewBox="0 0 13 10" fill="none" xmlns="http://www.w3.org/2000/svg">
<path fill-rule="evenodd" clip-rule="evenodd" d="M0.9825 0.7325C0.25 1.46438 0.25 2.64313 0.25 5C0.25 7.35687 0.25 8.53562 0.9825 9.2675C1.715 9.99937 2.89313 10 5.25 10H7.75C10.1069 10 11.2856 10 12.0175 9.2675C12.7494 8.535 12.75 7.35687 12.75 5C12.75 2.64313 12.75 1.46438 12.0175 0.7325C11.285 0.000624955 10.1069 0 7.75 0H5.25C2.89313 0 1.71438 -7.45058e-08 0.9825 0.7325ZM10.61 2.2C10.6895 2.29549 10.7279 2.41866 10.7166 2.54242C10.7054 2.66618 10.6454 2.78041 10.55 2.86L9.1775 4.00375C8.62313 4.46625 8.17437 4.84 7.7775 5.095C7.365 5.36063 6.96313 5.52813 6.5 5.52813C6.03687 5.52813 5.635 5.36 5.22188 5.095C4.82562 4.84 4.37687 4.46562 3.8225 4.00437L2.45 2.86062C2.35444 2.78106 2.2944 2.66679 2.28309 2.54296C2.27178 2.41913 2.31012 2.29587 2.38969 2.20031C2.46925 2.10475 2.58352 2.04471 2.70735 2.0334C2.83119 2.02209 2.95444 2.06043 3.05 2.14L4.4 3.26437C4.98313 3.75 5.3875 4.08625 5.73 4.30625C6.06062 4.51875 6.285 4.59063 6.50063 4.59063C6.71625 4.59063 6.94063 4.51938 7.27125 4.30625C7.61313 4.08625 8.01813 3.75 8.60125 3.26437L9.95062 2.13937C10.0462 2.05992 10.1694 2.02167 10.2932 2.03304C10.4169 2.0444 10.5305 2.10446 10.61 2.2Z" fill="#F5F5F5"/>
</svg>
